<svg xmlns="http://www.w3.org/2000/svg" width="1080" height="1080" viewBox="0 0 1080 1080" role="img" aria-label="Slide 2 projects">
  <rect width="1080" height="1080" fill="#f3f6fb"/>
  <rect x="42" y="42" width="996" height="996" rx="24" fill="#ffffff" stroke="#d8e1ee"/>

  <text x="540" y="132" text-anchor="middle" fill="#2c4673" font-size="52" font-family="Poppins, Segoe UI, sans-serif" font-weight="800">Mes Projets &amp; Experiences</text>
  <line x1="110" y1="156" x2="970" y2="156" stroke="#d4deec" stroke-width="3"/>

  <rect x="92" y="206" width="436" height="560" rx="18" fill="#f8fbff" stroke="#d8e2f0"/>
  <rect x="128" y="256" width="160" height="160" rx="10" fill="#213d71"/>
  <rect x="308" y="256" width="160" height="160" rx="10" fill="#213d71"/>
  <rect x="128" y="436" width="160" height="160" rx="10" fill="#213d71"/>
  <rect x="308" y="436" width="160" height="160" rx="10" fill="#213d71"/>

  <text x="208" y="336" text-anchor="middle" fill="#ffffff" font-size="23" font-family="Poppins, Segoe UI, sans-serif" font-weight="700">SINDy</text>
  <text x="388" y="336" text-anchor="middle" fill="#ffffff" font-size="23" font-family="Poppins, Segoe UI, sans-serif" font-weight="700">Kalman</text>
  <text x="208" y="516" text-anchor="middle" fill="#ffffff" font-size="23" font-family="Poppins, Segoe UI, sans-serif" font-weight="700">NLP Enron</text>
  <text x="388" y="516" text-anchor="middle" fill="#ffffff" font-size="23" font-family="Poppins, Segoe UI, sans-serif" font-weight="700">Simulation</text>

  <rect x="566" y="206" width="418" height="560" rx="18" fill="#f8fbff" stroke="#d8e2f0"/>
  <text x="595" y="258" fill="#2f4a78" font-size="36" font-family="Poppins, Segoe UI, sans-serif" font-weight="800">Analyse NLP - Enron</text>
  <line x1="596" y1="276" x2="954" y2="276" stroke="#d4deec" stroke-width="3"/>
  <rect x="596" y="304" width="170" height="120" rx="8" fill="#ecf2fb" stroke="#d8e2f0"/>
  <rect x="786" y="304" width="170" height="120" rx="8" fill="#ecf2fb" stroke="#d8e2f0"/>
  <rect x="596" y="444" width="170" height="120" rx="8" fill="#ecf2fb" stroke="#d8e2f0"/>
  <rect x="786" y="444" width="170" height="120" rx="8" fill="#ecf2fb" stroke="#d8e2f0"/>

  <text x="612" y="620" fill="#3e5682" font-size="30" font-family="Poppins, Segoe UI, sans-serif" font-weight="700">500,000+ e-mails analyses</text>
  <text x="612" y="666" fill="#3e5682" font-size="30" font-family="Poppins, Segoe UI, sans-serif" font-weight="700">Segmentation par themes</text>
  <text x="612" y="712" fill="#3e5682" font-size="30" font-family="Poppins, Segoe UI, sans-serif" font-weight="700">Detection d anomalies</text>

  <rect x="92" y="804" width="892" height="162" rx="16" fill="#ecf2fb"/>
  <text x="540" y="868" text-anchor="middle" fill="#2a4471" font-size="35" font-family="Poppins, Segoe UI, sans-serif" font-weight="800">Projets en simulation numerique, ML et data engineering</text>
  <text x="540" y="915" text-anchor="middle" fill="#4d658d" font-size="28" font-family="Poppins, Segoe UI, sans-serif">Approche orientee resultats et lisibilite recruteur</text>
</svg>